<?xml version="1.0" standalone="no"?>
<!DOCTYPE svg PUBLIC "-//W3C//DTD SVG 20010904//EN"
 "http://www.w3.org/TR/2001/REC-SVG-20010904/DTD/svg10.dtd">
<svg version="1.0" xmlns="http://www.w3.org/2000/svg"
 width="16.000000pt" height="16.000000pt" viewBox="0 0 16.000000 16.000000"
 preserveAspectRatio="xMidYMid meet">
<metadata>
Created by potrace 1.11, written by Peter Selinger 2001-2013
</metadata>
<g transform="translate(0.000000,16.000000) scale(0.000745,-0.000745)"
fill="#000000" stroke="none">
<path d="M10055 20980 c-284 -9 -389 -19 -780 -75 -465 -67 -689 -107 -1012
-180 -1859 -423 -3603 -1338 -4993 -2620 -196 -181 -560 -549 -716 -725 -791
-892 -1426 -1913 -1847 -2970 -609 -1532 -828 -3192 -636 -4825 255 -2172
1248 -4217 2829 -5828 1109 -1131 2429 -1986 3930 -2547 949 -355 1907 -573
2950 -671 207 -19 284 -21 970 -20 410 1 770 4 800 6 645 58 1045 115 1539
221 1833 392 3541 1242 4918 2446 522 456 971 930 1378 1454 863 1110 1491
2392 1825 3724 98 388 158 711 216 1155 19 149 40 308 47 355 7 58 11 318 10
825 -1 791 -6 896 -63 1325 -186 1403 -686 2778 -1456 4000 -847 1346 -2055
2527 -3444 3367 -339 205 -788 443 -1140 603 -1017 464 -2130 777 -3270 919
-484 61 -545 64 -1205 66 -341 1 -723 -1 -850 -5z m1270 -1580 c154 -9 356
-26 525 -45 394 -45 803 -118 1190 -211 783 -189 1579 -497 2302 -890 817
-444 1608 -1055 2252 -1739 1171 -1244 1922 -2731 2207 -4365 196 -1128 144
-2383 -145 -3470 -14 -52 -28 -106 -32 -120 -21 -83 -122 -401 -173 -545 -127
-361 -231 -605 -410 -965 -1156 -2313 -3344 -4033 -5951 -4678 -113 -28 -239
-58 -280 -67 -544 -113 -1017 -177 -1530 -206 -252 -15 -820 -15 -1075 0
-1658 94 -3236 604 -4618 1493 -1867 1199 -3222 3052 -3751 5128 -300 1182
-333 2438 -95 3635 292 1463 966 2810 1988 3969 148 168 560 580 721 722 403
354 835 677 1260 941 784 488 1645 863 2535 1104 99 27 352 89 405 99 25 5 88
18 140 30 472 102 1029 167 1680 194 132 5 655 -3 855 -14z"/>
<path d="M10279 16853 l-166 -3 -6 -128 c-3 -70 -12 -272 -19 -448 l-12 -322
-76 -6 c-110 -8 -430 -16 -1180 -26 -366 -6 -765 -13 -888 -17 l-222 -6 -264
-351 c-575 -765 -866 -1259 -1096 -1861 -418 -1094 -431 -2139 -40 -3305 190
-567 461 -1135 853 -1788 l114 -190 -406 -8 c-223 -5 -523 -9 -666 -9 -257 0
-261 0 -338 27 -290 101 -474 274 -532 498 -21 79 -16 271 10 395 53 254 143
450 409 894 64 106 116 198 116 204 0 12 -132 3 -284 -18 -590 -84 -1120 -363
-1439 -758 -520 -642 -632 -1629 -285 -2502 188 -472 516 -890 913 -1161 l81
-55 89 11 c434 49 818 200 1016 399 200 200 260 492 200 961 -12 91 -23 171
-26 178 -5 15 -10 15 72 -3 405 -90 707 -234 884 -422 204 -215 218 -608 37
-1002 -21 -46 -36 -86 -34 -88 2 -3 46 -15 98 -29 538 -137 1125 6 1502 366
239 229 346 478 346 804 0 102 -11 237 -26 310 l-6 29 48 -7 c79 -11 327 -84
432 -127 168 -68 362 -193 433 -278 50 -60 107 -189 129 -292 43 -206 13 -449
-91 -723 -21 -55 -36 -103 -34 -107 13 -20 565 -27 740 -9 491 51 822 203
1091 501 92 102 124 146 174 247 92 182 133 393 147 745 4 110 10 167 17 167
6 0 38 -9 71 -19 432 -137 752 -453 851 -839 20 -77 25 -123 26 -222 1 -160
-19 -235 -114 -428 -38 -79 -67 -146 -65 -149 13 -12 607 -15 722 -4 284 29
502 106 685 243 245 182 398 412 520 778 41 126 115 416 135 533 5 29 10 37
21 33 9 -3 50 -18 92 -32 252 -87 437 -212 536 -363 84 -129 110 -242 110
-476 0 -174 -12 -262 -69 -539 -19 -93 -35 -175 -35 -183 0 -16 27 -16 370 8
563 39 1012 168 1252 360 162 129 287 339 338 569 18 81 40 263 60 505 46 525
94 934 135 1149 8 44 13 81 11 84 -3 2 -90 3 -193 1 -317 -7 -535 -3 -597 9
-50 10 -70 22 -145 84 -132 111 -448 425 -602 600 -328 372 -762 956 -955
1285 -445 757 -687 1452 -781 2238 -25 216 -25 812 0 1005 104 783 373 1502
809 2160 31 47 55 87 53 88 -2 2 -322 -1 -712 -7 -2256 -35 -3644 -44 -3661
-26 -14 14 -31 268 -38 588 l-7 277 -177 0 c-97 0 -204 1 -236 3 -32 2 -134 2
-225 0z m1586 -6677 c321 -30 856 -100 1025 -136 25 -5 97 -18 160 -30 230
-43 536 -115 842 -199 89 -24 312 -95 443 -141 741 -259 1382 -609 1675 -916
72 -75 177 -211 169 -219 -2 -2 -510 -10 -1129 -19 -619 -9 -1593 -23 -2165
-31 -572 -8 -1189 -17 -1371 -20 l-332 -6 -6 153 c-3 84 -13 331 -22 548 -9
217 -18 546 -21 730 l-6 336 284 -18 c156 -9 361 -24 454 -32z m-2040 -103
c-14 -150 -62 -1088 -71 -1410 l-7 -223 -112 0 c-141 0 -1185 -17 -1527 -25
l-258 -6 0 139 c0 278 67 525 195 724 66 101 122 164 221 250 323 277 740 457
1319 567 88 16 169 32 180 34 64 14 66 12 60 -50z"/>
</g>
</svg>
