<?xml version="1.0" encoding="UTF-8" standalone="no"?>
<!-- Created with Inkscape (http://www.inkscape.org/) -->

<svg
   xmlns:dc="http://purl.org/dc/elements/1.1/"
   xmlns:cc="http://creativecommons.org/ns#"
   xmlns:rdf="http://www.w3.org/1999/02/22-rdf-syntax-ns#"
   xmlns:svg="http://www.w3.org/2000/svg"
   xmlns="http://www.w3.org/2000/svg"
   xmlns:sodipodi="http://sodipodi.sourceforge.net/DTD/sodipodi-0.dtd"
   xmlns:inkscape="http://www.inkscape.org/namespaces/inkscape"
   width="188.56088mm"
   height="179.73979mm"
   viewBox="0 0 668.12911 636.87328"
   id="svg2"
   version="1.1"
   inkscape:version="0.92.2 (5c3e80d, 2017-08-06)"
   sodipodi:docname="logo.svg">
  <defs
     id="defs4">
    <pattern
       y="0"
       x="0"
       height="6"
       width="6"
       patternUnits="userSpaceOnUse"
       id="EMFhbasepattern" />
  </defs>
  <sodipodi:namedview
     id="base"
     pagecolor="#ffffff"
     bordercolor="#666666"
     borderopacity="1.0"
     inkscape:pageopacity="0.0"
     inkscape:pageshadow="2"
     inkscape:zoom="0.49497475"
     inkscape:cx="292.6787"
     inkscape:cy="331.06506"
     inkscape:document-units="px"
     inkscape:current-layer="layer1"
     showgrid="false"
     inkscape:window-width="1920"
     inkscape:window-height="1025"
     inkscape:window-x="0"
     inkscape:window-y="27"
     inkscape:window-maximized="1" />
  <metadata
     id="metadata7">
    <rdf:RDF>
      <cc:Work
         rdf:about="">
        <dc:format>image/svg+xml</dc:format>
        <dc:type
           rdf:resource="http://purl.org/dc/dcmitype/StillImage" />
        <dc:title />
      </cc:Work>
    </rdf:RDF>
  </metadata>
  <g
     inkscape:label="Layer 1"
     inkscape:groupmode="layer"
     id="layer1"
     transform="translate(-35.93494,-40.278655)">
    <g
       id="g3424"
       transform="matrix(0.05068941,0,0,0.05068941,345.93114,340.13035)">
      <path
         inkscape:connector-curvature="0"
         id="path3360"
         d="m -428.25108,-5857.4243 c 1311.13985,-171.2997 2673.52018,37.5003 3865.91988,613.7001 1327.3902,633.7 2440.9903,1723.6001 3060.99,3060.9601 512.4002,1091.1601 684.9,2337.30015 486.2002,3525.9504 -218.7,1369.8802 -937.3999,2643.5201 -1964.7999,3569.6902 C 3868.8588,5964.0326 2336.5089,6577.7295 781.64904,6641.474 -483.24108,6700.2189 -1763.1311,6402.7446 -2866.7911,5780.2986 c -1151.15,-642.4421 -2106.07,-1641.1122 -2669.767,-2836.0023 -588.699,-1231.1501 -733.6869,-2666.02016 -411.215,-3992.1603 311.223,-1304.88 1077.402,-2487.26 2112.322,-3335.9601 966.16,-801.1999 2164.8099,-1308.6 3407.20002,-1473.6002 m 348.719885,941.1003 c -1326.129805,127.4999 -2618.519905,706.1999 -3548.439905,1668.6501 -1111.16,1096.16 -1688.606,2721.02011 -1469.88,4270.8801 191.24,1527.3702 1131.16,2914.7502 2422.3,3734.6803 1271.1402,819.93 2869.74995,1107.4051 4347.1201,792.43 1612.36,-319.97 3074.6899,-1372.3801 3838.3899,-2836.0003 412.5001,-786.1798 617.4999,-1681.1101 576.2002,-2569.78007 -32.5003,-758.67985 -245.0002,-1509.86983 -603.7002,-2178.55993 -503.6999,-928.6701 -1286.1,-1697.4001 -2212.2801,-2201.1004 -1017.4099,-552.3998 -2198.56,-789.8999 -3349.709995,-681.1998 z"
         style="fill:#1f1a17;fill-opacity:1;fill-rule:evenodd;stroke:none" />
      <path
         inkscape:connector-curvature="0"
         id="path3362"
         d="m 84.208924,-3376.414 c 168.730156,0 336.220156,0 503.699886,0 0,179.9901 6.25004,359.9699 10.00027,539.96 621.19982,-6.25 1241.13972,-12.5 1862.33992,-14.9999 281.2298,-30.0001 564.9498,-21.2502 847.4301,-25.0001 -479.9601,667.44 -681.1902,1537.3702 -488.7103,2342.30009 199.98,874.92017 756.18,1624.86011 1409.89,2222.31021 180,48.74 377.5001,3.7499 563.7001,18.7399 -126.3001,367.47 -67.5,768.69 -166.1998,1143.6602 -40.0001,108.7398 -107.5001,204.9799 -183.8002,292.47 -293.6998,211.23 -669.8998,184.98 -1007.3899,251.23 16.2401,-226.23 97.4899,-453.7099 34.9898,-681.1899 -64.9899,-186.2401 -258.7199,-273.7301 -431.2098,-333.72 -51.2501,297.4698 -129.9901,628.69 -388.7199,817.4299 -251.2202,209.98 -599.9401,168.73 -903.6702,153.73 133.74,-166.23 139.99,-386.2099 93.74,-586.2001 -122.49,-207.4798 -307.4698,-373.7098 -546.2001,-428.7101 10.0002,192.4802 -7.4998,392.4702 -91.2398,569.9502 -33.75,77.49 -106.2401,131.2398 -137.4899,211.23 -317.47006,243.73 -731.19014,276.23 -1117.400334,234.98 93.740315,-196.23 157.480154,-446.21 38.74004,-644.94 -129.979846,-193.7402 -372.460046,-241.2301 -582.439966,-298.7302 113.74016,322.4803 -64.99984,686.1902 -358.7198,838.6802 -207.49004,122.49 -456.21004,128.74 -689.94004,109.99 -51.25,-1.25 -92.5001,-35 -134.99,-58.74 101.24,-172.49 154.98,-402.4699 48.7399,-584.9499 -138.73,-212.4801 -399.96,-271.2303 -628.69,-336.2202 58.7399,203.7299 72.49,443.71 -31.2499,634.9401 -162.49,242.48 -472.4601,268.73 -728.6901,346.22 -774.93,-459.9601 -1034.91,-1654.8601 -426.21,-2348.55 268.73,-304.97 681.19,-426.21028 1074.91,-447.4602 -196.2401,259.97989 -401.22,564.9502 -373.72,906.1799 12.5,187.4803 201.23,289.9701 363.7201,331.2202 276.2199,10 551.2,-7.5001 826.1798,1.2501 -478.71,-718.6901 -838.6799,-1572.37022 -766.1899,-2452.29036 19.9999,-321.21994 132.4899,-628.70004 246.2301,-927.41994 184.99,-448.7099 493.7099,-827.4299 777.4299,-1216.1502 483.70998,-5 967.41994,-12.4898 1449.880182,-32.49 -2.500158,-183.74 1.249724,-367.47 31.249842,-548.7099 M 712.89897,696.98628 c 8.74984,353.71982 18.75011,707.44012 22.5,1061.15992 824.93003,-3.7499 1649.85983,-21.2499 2474.78993,-21.2499 199.98,5 397.4602,-39.9901 597.4699,-21.2499 -206.2598,-254.97 -499.9797,-417.4601 -794.9597,-548.7003 C 2286.5189,859.47633 1496.5789,724.48625 712.89897,696.98628 M -1100.691,1169.4463 c -148.7399,171.2399 -219.9802,398.7198 -198.73,624.9501 386.20988,-6.2501 772.43,-9.9999 1158.64977,-12.5001 16.24004,-344.97 -6.24969,-694.94 47.490232,-1036.16013 C -453.25124,815.72641 -829.46116,905.71614 -1100.691,1169.4463 Z"
         style="fill:#1f1a17;fill-opacity:1;fill-rule:evenodd;stroke:none" />
    </g>
  </g>
</svg>
