<?xml version="1.0" encoding="UTF-8" standalone="no"?>
<!-- Created with Inkscape (http://www.inkscape.org/) -->

<svg
   xmlns:dc="http://purl.org/dc/elements/1.1/"
   xmlns:cc="http://creativecommons.org/ns#"
   xmlns:rdf="http://www.w3.org/1999/02/22-rdf-syntax-ns#"
   xmlns:svg="http://www.w3.org/2000/svg"
   xmlns="http://www.w3.org/2000/svg"
   xmlns:sodipodi="http://sodipodi.sourceforge.net/DTD/sodipodi-0.dtd"
   xmlns:inkscape="http://www.inkscape.org/namespaces/inkscape"
   width="194.00247mm"
   height="149.1523mm"
   viewBox="0 0 687.41033 528.49239"
   id="svg2"
   version="1.1"
   inkscape:version="0.92.2 (5c3e80d, 2017-08-06)"
   sodipodi:docname="ovce.svg">
  <defs
     id="defs4">
    <pattern
       y="0"
       x="0"
       height="6"
       width="6"
       patternUnits="userSpaceOnUse"
       id="EMFhbasepattern" />
  </defs>
  <sodipodi:namedview
     id="base"
     pagecolor="#ffffff"
     bordercolor="#666666"
     borderopacity="1.0"
     inkscape:pageopacity="0"
     inkscape:pageshadow="2"
     inkscape:zoom="0.7"
     inkscape:cx="309.42711"
     inkscape:cy="155.43792"
     inkscape:document-units="px"
     inkscape:current-layer="layer1"
     showgrid="false"
     inkscape:window-width="1920"
     inkscape:window-height="1025"
     inkscape:window-x="0"
     inkscape:window-y="27"
     inkscape:window-maximized="1" />
  <metadata
     id="metadata7">
    <rdf:RDF>
      <cc:Work
         rdf:about="">
        <dc:format>image/svg+xml</dc:format>
        <dc:type
           rdf:resource="http://purl.org/dc/dcmitype/StillImage" />
        <dc:title />
      </cc:Work>
    </rdf:RDF>
  </metadata>
  <g
     inkscape:label="Layer 1"
     inkscape:groupmode="layer"
     id="layer1"
     transform="translate(-28.055146,-30.440857)">
    <g
       id="g3395"
       transform="translate(0,-5.7142857)">
      <path
         inkscape:connector-curvature="0"
         id="path3362"
         d="m 81.37363,192.62921 c 28.70694,-16.20852 61.5149,-5.46846 88.85473,8.20114 -5.0774,13.28056 -15.23218,24.60653 -16.79444,39.05733 -5.07739,22.6535 3.31983,44.7211 11.32644,65.42158 -26.36346,15.42732 -61.1243,30.26873 -89.831236,11.13067 C 29.037088,290.46629 31.575799,212.74379 81.37363,192.62921 m 17.770943,24.60497 c -4.686941,9.56981 -3.905733,26.55955 9.959487,26.95015 12.1078,5.07786 25.3871,-10.74006 18.55215,-21.67699 -3.90574,-11.71657 -19.91911,-9.37295 -28.511637,-5.27316 z"
         style="fill:#fefefe;fill-opacity:1;fill-rule:evenodd;stroke:none" />
      <path
         inkscape:connector-curvature="0"
         id="path3364"
         d="m 173.93879,222.70264 c 9.56856,-20.50518 31.24555,-30.46403 50.77421,-39.25263 30.65934,-3.51544 69.52137,7.81209 80.06769,40.03384 17.18504,54.87526 -45.69761,113.26596 -99.40105,93.93259 -36.12764,-13.8649 -50.57876,-61.90614 -31.44085,-94.7138 m 42.18091,22.0676 c -13.47429,-0.1953 -14.2555,16.40383 -15.03671,26.36268 14.25707,6.24968 29.68438,5.27317 38.27612,-8.98234 -6.44341,-7.22618 -11.32597,-19.72397 -23.23941,-17.38034 z"
         style="fill:#fefefe;fill-opacity:1;fill-rule:evenodd;stroke:none" />
      <path
         inkscape:connector-curvature="0"
         id="path3368"
         d="m 278.80705,45.579092 c 25.38773,-15.427322 56.04706,-2.929536 70.49787,21.286385 19.52867,-15.622621 42.76808,-37.104309 69.71666,-28.903178 21.8723,5.468466 34.17478,25.58304 43.74459,44.135197 18.55216,-6.640281 38.86203,-9.374514 55.46116,3.515441 22.2629,-7.616793 48.03967,-13.671163 69.52134,-0.390607 16.40388,6.443411 21.48172,24.40966 28.12043,38.66673 16.01324,1.95146 33.19982,7.22462 41.40093,22.45664 6.05442,13.08525 -5.27316,24.41122 -10.34946,35.54189 30.65935,0.97651 61.70928,19.91927 68.5449,51.55668 v 7.02932 c -8.39803,14.2555 -24.02065,19.13806 -39.44795,21.67699 15.03673,13.6696 34.37005,26.16738 38.27612,47.84437 -3.71076,9.37452 -8.98392,17.96625 -14.06022,26.75486 4.09978,9.37294 8.39643,18.55215 11.32598,28.3157 -2.34361,13.08369 -12.30249,22.4582 -21.28641,31.44133 -10.74003,-1.17182 -21.48167,-2.34347 -32.2217,-3.51466 -1.95304,-2.92954 -6.05442,-8.78861 -8.0074,-11.71814 -4.68572,17.96672 13.08524,30.07437 17.96623,45.8926 -0.58434,9.95948 -4.49041,19.33321 -7.02933,28.70694 -28.90319,5.46799 -53.50812,-11.1313 -72.2556,-31.44101 -19.13805,40.81474 -4.68722,85.73036 -2.9295,128.30254 -8.20272,0.58584 -16.20855,0.97642 -24.21594,1.56228 -0.58591,-26.94942 -2.73267,-53.70349 -6.83402,-80.26226 -17.77094,-5.8586 -31.83115,-17.77095 -40.42444,-34.37024 -9.37295,13.47461 -19.33337,26.36347 -30.07343,38.66642 1.17181,28.90224 3.31858,57.60925 5.4669,86.31621 H 465.3051 c -0.97651,-25.5824 -1.95302,-51.36007 -3.32014,-77.13778 -18.35685,-5.6633 -29.29221,-19.91912 -32.80766,-38.66642 -14.25706,9.56888 -30.66089,14.45112 -47.65063,10.74069 -10.34945,12.10765 -24.99557,17.96625 -40.22758,21.28607 3.31858,24.99651 5.4669,50.18832 7.02932,75.38016 -8.20114,0.19528 -16.20853,0.19528 -24.21436,0.39057 -2.34363,-27.92588 -3.71074,-56.04691 -4.88256,-83.97264 -6.44497,-8.98328 -12.88838,-18.16155 -19.13806,-27.33998 -15.03671,10.54539 -32.80765,15.81808 -51.35981,13.2793 1.17181,33.97964 0.97651,68.15473 1.75772,102.13431 -6.44497,0 -18.94276,-0.19529 -25.19243,-0.19529 -0.58591,-38.66654 -0.97651,-77.33295 -0.97651,-115.99953 -19.33336,2.53878 -39.05733,2.53878 -56.82797,-5.8586 -2.14816,-7.42086 -4.49163,-15.03687 -6.63964,-22.45773 -13.67007,-3.71043 -31.44102,-2.53877 -40.03354,-15.81808 -7.03025,-9.95932 -2.34347,-22.26337 -1.56226,-33.19873 -6.44451,-8.98235 -12.88886,-17.96625 -18.94276,-27.1439 -19.333205,-6.83557 -39.838225,-14.06176 -52.922384,-30.8562 -17.575612,-24.40966 -26.754037,-57.80322 -11.912345,-85.92519 10.545385,-29.09691 39.642925,-45.50074 68.545159,-51.16451 -2.34347,-9.56981 -4.686784,-19.13807 -6.834951,-28.70788 15.818081,-13.4743 35.541891,-19.1365 54.094041,-7.61522 6.24905,-17.77095 14.64642,-35.7372 32.0263,-44.916408 8.20269,3.710745 16.20852,7.616793 24.21592,11.327528 -0.58591,-10.936921 -1.36712,-22.067588 -1.95303,-33.198256 6.05437,-6.249674 12.10718,-12.499348 18.16155,-18.942764 17.96625,0.195304 33.78417,8.005834 48.03968,18.356854 2.34362,-7.616788 4.68725,-15.233575 7.03088,-22.848802 M 81.37363,192.62921 c -49.797831,20.11458 -52.336542,97.83708 -6.444506,123.81072 28.706936,19.13806 63.467776,4.29665 89.831236,-11.13067 -8.00661,-20.70048 -16.40383,-42.76808 -11.32644,-65.42158 1.56226,-14.4508 11.71704,-25.77677 16.79444,-39.05733 -27.33983,-13.6696 -60.14779,-24.40966 -88.85473,-8.20114 m 92.56516,30.07343 c -19.13791,32.80766 -4.68679,80.8489 31.44085,94.7138 53.70344,19.33337 116.58609,-39.05733 99.40105,-93.93259 -10.54632,-32.22175 -49.40835,-43.54928 -80.06769,-40.03384 -19.52866,8.7886 -41.20565,18.74745 -50.77421,39.25263 z"
         style="fill:#000000;fill-opacity:1;fill-rule:evenodd;stroke:none" />
      <path
         inkscape:connector-curvature="0"
         id="path3370"
         d="m 99.144573,217.23418 c 8.592527,-4.09979 24.605897,-6.44341 28.511637,5.27316 6.83495,10.93693 -6.44435,26.75485 -18.55215,21.67699 -13.86522,-0.3906 -14.646428,-17.38034 -9.959487,-26.95015 z"
         style="fill:#000000;fill-opacity:1;fill-rule:evenodd;stroke:none" />
      <path
         inkscape:connector-curvature="0"
         id="path3372"
         d="m 216.1197,244.77024 c 11.91344,-2.34363 16.796,10.15416 23.23941,17.38034 -8.59174,14.25551 -24.01905,15.23202 -38.27612,8.98234 0.78121,-9.95885 1.56242,-26.55798 15.03671,-26.36268 z"
         style="fill:#000000;fill-opacity:1;fill-rule:evenodd;stroke:none" />
    </g>
  </g>
</svg>
